<svg id="Layer_1" data-name="Layer 1" xmlns="http://www.w3.org/2000/svg" viewBox="0 0 198.43 69.52"><defs><style>.cls-1{fill:#f2911b;}</style></defs><path class="cls-1" d="M9.94,51.57c2.68,3.62,15.16,14.06,45.32,17.18s50.15-3.93,53-8.63-3.11-2-3.11-2-18.47,6.39-43.7,4.75C28.23,61.64,11.46,50,11.46,50S7.25,48,9.94,51.57Z"/><path class="cls-1" d="M103.44,53.87c0,1.79,5.9.81,9.53.93,3.84.13-3.85,12.08-1.21,11.81,5.91-3.71,7.52-14.06,4.77-15.92S103.44,52.08,103.44,53.87Z"/><path d="M6.81,27.92c4-3.64,8.33-7.59,12.61-11.63a3.59,3.59,0,0,1,2.81-1.15c2,.09,4,0,6.07,0a3.31,3.31,0,0,1-1,1.56c-4.36,4.38-8.71,8.77-13.14,13.08-.94.91-.84,1.36,0,2.23,4.74,4.79,9.41,9.65,14.1,14.49.42.44.82.89,1.48,1.61-2.87,0-5.43,0-8,0-.68,0-1-.52-1.33-.91Q14.46,41,8.55,34.79c-.49-.51-.94-1.06-1.74-2,0,4.77-.07,9,0,13.23,0,1.59-.25,2.59-2.08,2.33-1.49-.22-3.62.55-4.38-.5-.35-.47-.33-3-.33-4.5C0,29.54,0,15.71,0,1.88,0,.6.19,0,1.72.05c.2,0,4.33-.27,4.82.52.3.49.25,3.09.26,4.71C6.82,13.11,6.81,20.94,6.81,27.92Z"/><path d="M169.3,31.52c0-4.92,0-9.85,0-14.78,0-1.27.35-1.64,1.63-1.58h1.35c2.52,0,2.56,0,3.14,2.48.29,1.21.78.68,1.36.3a20.64,20.64,0,0,1,13.43-3.59c4.57.38,7.65,3.29,8,7.83.57,8.27.11,16.57.26,24.85,0,.74-.12,1.16-1,1.12-1.85-.08-4.93.28-5.43,0s-.32-3.58-.33-5.29c0-5.65,0-11.31,0-17,0-4.83-2.59-6.9-7.38-6.15a21.23,21.23,0,0,0-7,2.38,2.07,2.07,0,0,0-1.19,2.12c0,7.39,0,14.78,0,22.18,0,1.42-.4,1.85-1.78,1.71a21,21,0,0,0-3.72,0c-1.09.08-1.32-.37-1.32-1.36C169.32,41.72,169.3,36.62,169.3,31.52Z"/><path d="M106.38,42.85c2.8-.42,8.66-1.66,15.19,0,4.05,1,3.75,0,3.82,3.75,0,1.25-.3,1.59-1.58,1.58-12.73-2.38-16.74-.7-23.35,0-1.29.13-1.46-.39-1.57-1.58a7.94,7.94,0,0,1,2.28-6.32c5.21-6,10.23-12.23,15.31-18.38a2.21,2.21,0,0,0,.81-1.42h-6.56c-3.21,0-6.43,0-9.64,0-1.11,0-1.59-.19-1.59-1.45,0-3.88,0-3.88,3.86-3.88,6.71,0,13.43,0,20.14,0,1.24,0,1.64.22,1.78,1.61.26,2.7-.84,4.61-2.54,6.56C117.44,29.42,106.78,42.3,106.38,42.85Z"/><path d="M159.12,21.17c-3.31-6.15-10.24-8-17.72-6.41-5,1-8.33,4.19-10.11,9A21.56,21.56,0,0,0,130,31.88c0,.36,0,1,0,1.59.48,8.05,4.6,14.56,13.36,15.54,6.39.71,12.71-1,15.81-6.92A21.4,21.4,0,0,0,159.12,21.17Zm-6,18.5c-1.69,3.51-5,4.28-8.56,4a7.47,7.47,0,0,1-6.74-5.26,20.86,20.86,0,0,1-1.13-6.67,19.77,19.77,0,0,1,1.51-7.57c1.5-3.23,4.32-4.49,7.67-4.47s6.17,1.21,7.49,4.46A18.53,18.53,0,0,1,153.15,39.67Z"/><path d="M38.83,33.25c3.15,0,15.89,0,19.11,0,.89,0,1.24-.23,1.39-1.19a32.35,32.35,0,0,0,.23-6.52,11.22,11.22,0,0,0-9-10.94,18.75,18.75,0,0,0-9.2.35,12.78,12.78,0,0,0-8.23,7c-2.69,5.76-2.64,11.74-.84,17.68,1.55,5.12,5.25,8.08,10.51,9.09A26.25,26.25,0,0,0,55.63,48C59,46.9,59,46.89,59,43.37c0-1.3-.21-1.64-1.58-1.15a24.73,24.73,0,0,1-11.28,1.43C40.81,43,38.2,40,37.67,34.49,37.58,33.55,37.84,33.23,38.83,33.25Zm-1.15-5.37c.41-3,1.25-5.76,4.07-7.34a8.71,8.71,0,0,1,8.72-.18c2.23,1.17,3.79,5.51,3,7.87-.17.76-5.6.46-7.85.46H38.73C38.17,28.69,37.55,28.79,37.68,27.88Z"/><path d="M92.07,24.56c-.17-6.51-3.27-9.65-9.52-10.16a33,33,0,0,0-11.7,1.08c-3.61,1-3.56,1-3.56,4.74,0,1.21.35,1.39,1.44,1a32.52,32.52,0,0,1,11-1.64c4,.1,5.67,1.64,6,5.49.07.89.09,1.79.08,2.68,0,2.09.41,2.12-2.1,1.68-4.36-.77-8.71-1.11-12.91.81-4.36,2-6.33,6.17-5.4,11.48.69,4,4.13,6.72,8.64,7.14s8.27-1.09,11.92-3.76c.85,3,.85,3,4,3,.39,0,.79,0,1.18,0a1,1,0,0,0,1-1.08C92.12,39.57,92.27,32.06,92.07,24.56ZM82.43,42.64A13,13,0,0,1,77,43.88c-3,0-4.81-1.32-5.2-3.74-.51-3.15.89-5.53,3.92-6.28a15.11,15.11,0,0,1,9.2.26c.47.19.71.5.8,1.25A20.51,20.51,0,0,1,85.87,38C85.81,40.66,84.65,41.65,82.43,42.64Z"/></svg>