<svg id="Layer_1" data-name="Layer 1" xmlns="http://www.w3.org/2000/svg" viewBox="0 0 171.9 66.11"><defs><style>.cls-1{fill:#f2911b;}</style></defs><path d="M72,25.49c-3.7-.6-7.38-.66-10.78,1.27s-4.86,5.43-4.07,9.93c.57,3.29,3.18,5.6,7,6.2,4.06.65,7.57-.72,11.24-3.21-.35,4,2.41,2.24,4,2.58,1,.21,1.49-.18,1.48-1.34-.06-6.78,0-13.56-.12-20.34-.07-3-1.24-5.83-4.37-7-5.63-2.16-11.24-1.28-16.68.77-1.87.7-1,2.74-.79,4s1.57.29,2.29.09a32.45,32.45,0,0,1,7.69-1.16c4.4-.13,6,1.43,6,5.75C75,26.05,75,26,72,25.49Zm.18,11.69a10.87,10.87,0,0,1-4.56,1.12c-2.64,0-4.22-1.2-4.45-3.36-.3-2.82,1.07-4.83,3.76-5.2a26.1,26.1,0,0,1,4.51-.07c3.48.14,3.48.17,3.48,3.76C75.58,35.54,74,36.42,72.2,37.18Z"/><path d="M88.18,41.65a21.1,21.1,0,0,0,13.33.92,8.59,8.59,0,0,0,6.55-7.72c.3-3.6-1.54-6.43-5.42-8.13-2.53-1.11-5.13-2-7.66-3.14a3,3,0,0,1-2-3.39c.18-1.61,1.24-2.24,2.61-2.66,2.71-.83,5.33-.13,7.94.48,2.91.68,3.23.38,3-2.62a1.84,1.84,0,0,0-1.46-1.75,23.78,23.78,0,0,0-6.16-1.34c-1.08.08-2.17.15-3.25.26-4.76.48-7.89,3.1-8.54,7.13s1.66,7.29,6.24,9.16c2.4,1,4.88,1.81,7.17,3a3.13,3.13,0,0,1,.18,5.53,5.77,5.77,0,0,1-3.08.92A27.72,27.72,0,0,1,88.44,37c-.54-.16-1.11-.55-1.57.11C86.15,38.18,87,41.2,88.18,41.65Z"/><path d="M146.22,27.67V38.22c0,4.12,0,4,4.12,4.1,1.72,0,2.08-.52,2-2.11-.09-5.27,0-10.55,0-15.82,0-4.85.18-5.09,4.95-6.47a10.37,10.37,0,0,1,1.47-.31c5.13-.68,7,.91,7,6.05,0,4.86,0,9.71,0,14.57,0,4.17,0,4.13,4.31,4.07,1.19,0,1.8-.13,1.78-1.58-.08-6.95,0-13.9-.08-20.84-.08-4.21-2.66-6.84-6.79-7.33a17.63,17.63,0,0,0-11.53,2.62c-.9.55-1.58,1.1-1.85-.55-.49-3-2.82-1.11-4.25-1.38-1.66-.32-1.15,1.27-1.16,2.13C146.19,19.47,146.22,23.57,146.22,27.67Z"/><path d="M122.28,42.81c6.51,1.29,12.12-.62,15.1-5.36,2.36-3.76,2.65-8,2.23-12.29-1-10.85-11.84-16.47-21.29-10.95-5.17,3-6.28,8.12-6.57,13.92.15,1.14.27,2.65.52,4.12C113.26,37.89,116.94,41.75,122.28,42.81Zm-4-18.51c.58-4.2,3.1-6.63,7-6.88s6.64,1.72,7.71,6a17.75,17.75,0,0,1,0,8.69c-1.05,4.2-3.82,6.36-7.67,6.12s-6.45-2.75-7.07-6.91c-.17-1.16-.16-2.34-.24-3.51C118.17,26.64,118.17,25.46,118.33,24.3Z"/><path d="M.05,38.21c0,4.12,0,4,4,4.11,1.68,0,2.12-.47,2.06-2.09-.12-3.46,0-6.94,0-11,3.48,3.65,6.85,6.61,9.47,10.11,2.92,3.9,6.54,2.86,10.68,2.78-4.64-4.82-8.9-9.32-13.26-13.72-1.05-1.06-1.15-1.61,0-2.7,3.29-3.11,6.45-6.36,9.63-9.59a9.89,9.89,0,0,0,2.52-3,31.79,31.79,0,0,1-3.81,0c-2.48-.34-4.16.7-5.87,2.44-3,3.06-6.27,5.82-9.37,8.65V3.67C6.1,0,6.1.14,2.37,0,.52-.06,0,.38,0,2.3.1,14.27.05,26.24.05,38.21Z"/><path d="M34.05,41.59c5.65,2.61,11.47,2.17,17-.39,1.56-.72.86-2.66.57-3.87s-1.49-.28-2.26-.1a28.2,28.2,0,0,1-8,1c-4.79-.26-7.86-3.15-8.14-7.55-.08-1.27.27-1.57,1.48-1.54,2.61.09,5.22,0,7.83,0h4c5.87,0,6.52-.75,5.71-6.65a20,20,0,0,0-.63-3.19A8.93,8.93,0,0,0,44,12.68c-5.28-.76-10.27-.13-13.83,4.51C27.32,21,27.1,25.36,27.35,29.84,27.62,34.86,29.16,39.33,34.05,41.59Zm-.46-19.1a7.23,7.23,0,0,1,8.72-5.3c2.86.57,5,3.83,4.63,6.84-.15,1.11-.83,1.08-1.61,1.07H40a42.94,42.94,0,0,0-4.54,0C33.13,25.39,33.06,24.25,33.59,22.49Z"/><path class="cls-1" d="M6.83,50c3.74,3.45,20.91,13.3,61.71,15.64s67.57-5,71.27-9.58-4.25-1.87-4.25-1.87-24.73,6.63-58.83,5.61c-44.9-.45-67.9-11.35-67.9-11.35S3.09,46.55,6.83,50Z"/><path class="cls-1" d="M134.59,48.85c0,1.74,6.63.78,10.7.9,4.32.13-4.31,11.73-1.35,11.47,6.64-3.61,8.45-13.66,5.35-15.47S134.59,47.11,134.59,48.85Z"/></svg>